<?xml version="1.0" encoding="UTF-8" standalone="no"?>
<!-- This is a Stata 16.0 generated SVG file (http://www.stata.com) -->

<svg version="1.1" width="600px" height="600px" viewBox="0 0 1584 1584" xmlns="http://www.w3.org/2000/svg" xmlns:xlink="http://www.w3.org/1999/xlink">
	<desc>Stata Graph - Graph</desc>
	<rect x="0" y="0" width="1584" height="1584" style="fill:#C6D3DF;stroke:none"/>
	<rect x="0.00" y="0.05" width="1584.00" height="1583.95" style="fill:#C6D3DF"/>
	<rect x="1.58" y="1.63" width="1580.83" height="1580.78" style="fill:none;stroke:#C6D3DF;stroke-width:3.17"/>
	<line x1="55.44" y1="1370.56" x2="1308.23" y2="1370.56" style="stroke:#FFFFFF;stroke-width:4.75"/>
	<line x1="55.44" y1="1097.76" x2="1308.23" y2="1097.76" style="stroke:#FFFFFF;stroke-width:4.75"/>
	<line x1="55.44" y1="824.97" x2="1308.23" y2="824.97" style="stroke:#FFFFFF;stroke-width:4.75"/>
	<line x1="55.44" y1="552.17" x2="1308.23" y2="552.17" style="stroke:#FFFFFF;stroke-width:4.75"/>
	<line x1="55.44" y1="279.33" x2="1308.23" y2="279.33" style="stroke:#FFFFFF;stroke-width:4.75"/>
	<path d=" M64.90 1236.56 L373.34 1224.83 L990.28 1053.06 L1298.72 336.06" stroke-linejoin="round" style="fill:none;stroke:#3E647D;stroke-width:19.01"/>
	<text x="1330.26" y="1391.74" style="font-family:'Helvetica';font-size:60.49px;fill:#000000">120</text>
	<text x="1330.26" y="1118.95" style="font-family:'Helvetica';font-size:60.49px;fill:#000000">140</text>
	<text x="1330.26" y="846.15" style="font-family:'Helvetica';font-size:60.49px;fill:#000000">160</text>
	<text x="1330.26" y="573.36" style="font-family:'Helvetica';font-size:60.49px;fill:#000000">180</text>
	<text x="1330.26" y="300.51" style="font-family:'Helvetica';font-size:60.49px;fill:#000000">200</text>
	<text x="1499.40" y="824.97" style="font-family:'Helvetica';font-size:60.49px;fill:#000000" transform="rotate(-90 1499.40,824.97)" text-anchor="middle">Mental Health Proviers per 100k pop.</text>
	<line x1="55.44" y1="1380.06" x2="1308.23" y2="1380.06" style="stroke:#000000;stroke-width:3.17"/>
	<line x1="64.95" y1="1358.08" x2="64.95" y2="1380.06" style="stroke:#000000;stroke-width:3.17"/>
	<text x="64.95" y="1433.37" style="font-family:'Helvetica';font-size:60.49px;fill:#000000" text-anchor="middle">1</text>
	<line x1="373.39" y1="1358.08" x2="373.39" y2="1380.06" style="stroke:#000000;stroke-width:3.17"/>
	<text x="373.39" y="1433.37" style="font-family:'Helvetica';font-size:60.49px;fill:#000000" text-anchor="middle">2</text>
	<line x1="681.83" y1="1358.08" x2="681.83" y2="1380.06" style="stroke:#000000;stroke-width:3.17"/>
	<text x="681.83" y="1433.37" style="font-family:'Helvetica';font-size:60.49px;fill:#000000" text-anchor="middle">3</text>
	<line x1="990.28" y1="1358.08" x2="990.28" y2="1380.06" style="stroke:#000000;stroke-width:3.17"/>
	<text x="990.28" y="1433.37" style="font-family:'Helvetica';font-size:60.49px;fill:#000000" text-anchor="middle">4</text>
	<line x1="1298.72" y1="1358.08" x2="1298.72" y2="1380.06" style="stroke:#000000;stroke-width:3.17"/>
	<text x="1298.72" y="1433.37" style="font-family:'Helvetica';font-size:60.49px;fill:#000000" text-anchor="middle">5</text>
	<text x="681.83" y="1499.40" style="font-family:'Helvetica';font-size:60.49px;fill:#000000" text-anchor="middle">Social Distancing: Lowest (1) to Highest (5)</text>
	<rect x="565.70" y="55.49" width="742.52" height="84.99" style="fill:#7B92A8"/>
	<rect x="567.29" y="57.07" width="739.36" height="81.82" style="fill:none;stroke:#7B92A8;stroke-width:3.17"/>
	<text x="1298.72" y="121.12" style="font-family:'Helvetica';font-size:65.99px;fill:#FFFFff" text-anchor="end">Mental Health Providers</text>
	<text x="90.29" y="155.89" style="font-family:'Helvetica';font-size:21.98px;fill:#000000">Data: Mobile Phone GPS Tracking &amp; RWJF CHR</text>
	<text x="90.29" y="177.87" style="font-family:'Helvetica';font-size:21.98px;fill:#000000">Analysis by @nabarund</text>
	<text x="90.29" y="199.85" style="font-family:'Helvetica';font-size:21.98px;fill:#000000">UNC Chapel Hill</text>
</svg>
