<?xml version="1.0" encoding="UTF-8" standalone="no"?>
<!-- This is a Stata 16.0 generated SVG file (http://www.stata.com) -->

<svg version="1.1" width="600px" height="600px" viewBox="0 0 1584 1584" xmlns="http://www.w3.org/2000/svg" xmlns:xlink="http://www.w3.org/1999/xlink">
	<desc>Stata Graph - Graph</desc>
	<rect x="0" y="0" width="1584" height="1584" style="fill:#C6D3DF;stroke:none"/>
	<rect x="0.00" y="0.05" width="1584.00" height="1583.95" style="fill:#C6D3DF"/>
	<rect x="1.58" y="1.63" width="1580.83" height="1580.78" style="fill:none;stroke:#C6D3DF;stroke-width:3.17"/>
	<line x1="55.44" y1="1311.16" x2="1324.12" y2="1311.16" style="stroke:#FFFFFF;stroke-width:4.75"/>
	<line x1="55.44" y1="1074.55" x2="1324.12" y2="1074.55" style="stroke:#FFFFFF;stroke-width:4.75"/>
	<line x1="55.44" y1="837.94" x2="1324.12" y2="837.94" style="stroke:#FFFFFF;stroke-width:4.75"/>
	<line x1="55.44" y1="601.38" x2="1324.12" y2="601.38" style="stroke:#FFFFFF;stroke-width:4.75"/>
	<line x1="55.44" y1="364.77" x2="1324.12" y2="364.77" style="stroke:#FFFFFF;stroke-width:4.75"/>
	<path d=" M64.90 279.38 L377.35 770.91 L1002.16 1138.25 L1314.56 1321.50" stroke-linejoin="round" style="fill:none;stroke:#3E647D;stroke-width:19.01"/>
	<text x="1346.10" y="1332.34" style="font-family:'Helvetica';font-size:60.49px;fill:#000000">4.4</text>
	<text x="1346.10" y="1095.73" style="font-family:'Helvetica';font-size:60.49px;fill:#000000">4.5</text>
	<text x="1346.10" y="859.12" style="font-family:'Helvetica';font-size:60.49px;fill:#000000">4.6</text>
	<text x="1346.10" y="622.56" style="font-family:'Helvetica';font-size:60.49px;fill:#000000">4.7</text>
	<text x="1346.10" y="385.95" style="font-family:'Helvetica';font-size:60.49px;fill:#000000">4.8</text>
	<text x="1499.40" y="824.97" style="font-family:'Helvetica';font-size:60.49px;fill:#000000" transform="rotate(-90 1499.40,824.97)" text-anchor="middle">Income inequality (80:20)</text>
	<line x1="55.44" y1="1380.06" x2="1324.12" y2="1380.06" style="stroke:#000000;stroke-width:3.17"/>
	<line x1="64.95" y1="1358.08" x2="64.95" y2="1380.06" style="stroke:#000000;stroke-width:3.17"/>
	<text x="64.95" y="1433.37" style="font-family:'Helvetica';font-size:60.49px;fill:#000000" text-anchor="middle">1</text>
	<line x1="377.35" y1="1358.08" x2="377.35" y2="1380.06" style="stroke:#000000;stroke-width:3.17"/>
	<text x="377.35" y="1433.37" style="font-family:'Helvetica';font-size:60.49px;fill:#000000" text-anchor="middle">2</text>
	<line x1="689.75" y1="1358.08" x2="689.75" y2="1380.06" style="stroke:#000000;stroke-width:3.17"/>
	<text x="689.75" y="1433.37" style="font-family:'Helvetica';font-size:60.49px;fill:#000000" text-anchor="middle">3</text>
	<line x1="1002.21" y1="1358.08" x2="1002.21" y2="1380.06" style="stroke:#000000;stroke-width:3.17"/>
	<text x="1002.21" y="1433.37" style="font-family:'Helvetica';font-size:60.49px;fill:#000000" text-anchor="middle">4</text>
	<line x1="1314.61" y1="1358.08" x2="1314.61" y2="1380.06" style="stroke:#000000;stroke-width:3.17"/>
	<text x="1314.61" y="1433.37" style="font-family:'Helvetica';font-size:60.49px;fill:#000000" text-anchor="middle">5</text>
	<text x="689.75" y="1499.40" style="font-family:'Helvetica';font-size:60.49px;fill:#000000" text-anchor="middle">Social Distancing: Lowest (1) to Highest (5)</text>
	<rect x="781.18" y="55.49" width="542.93" height="84.99" style="fill:#7B92A8"/>
	<rect x="782.77" y="57.07" width="539.76" height="81.82" style="fill:none;stroke:#7B92A8;stroke-width:3.17"/>
	<text x="1314.61" y="121.12" style="font-family:'Helvetica';font-size:65.99px;fill:#FFFFff" text-anchor="end">Income Inequality</text>
	<text x="90.29" y="155.89" style="font-family:'Helvetica';font-size:21.98px;fill:#000000">Data: Mobile Phone GPS Tracking &amp; RWJF CHR</text>
	<text x="90.29" y="177.87" style="font-family:'Helvetica';font-size:21.98px;fill:#000000">Analysis by @nabarund</text>
	<text x="90.29" y="199.85" style="font-family:'Helvetica';font-size:21.98px;fill:#000000">UNC Chapel Hill</text>
</svg>
