<?xml version="1.0" encoding="UTF-8" standalone="no"?>
<!-- This is a Stata 16.0 generated SVG file (http://www.stata.com) -->

<svg version="1.1" width="600px" height="600px" viewBox="0 0 1584 1584" xmlns="http://www.w3.org/2000/svg" xmlns:xlink="http://www.w3.org/1999/xlink">
	<desc>Stata Graph - Graph</desc>
	<rect x="0" y="0" width="1584" height="1584" style="fill:#C6D3DF;stroke:none"/>
	<rect x="0.00" y="0.05" width="1584.00" height="1583.95" style="fill:#C6D3DF"/>
	<rect x="1.58" y="1.63" width="1580.83" height="1580.78" style="fill:none;stroke:#C6D3DF;stroke-width:3.17"/>
	<line x1="55.44" y1="1370.56" x2="1342.53" y2="1370.56" style="stroke:#FFFFFF;stroke-width:4.75"/>
	<line x1="55.44" y1="1105.53" x2="1342.53" y2="1105.53" style="stroke:#FFFFFF;stroke-width:4.75"/>
	<line x1="55.44" y1="840.56" x2="1342.53" y2="840.56" style="stroke:#FFFFFF;stroke-width:4.75"/>
	<line x1="55.44" y1="575.54" x2="1342.53" y2="575.54" style="stroke:#FFFFFF;stroke-width:4.75"/>
	<line x1="55.44" y1="310.51" x2="1342.53" y2="310.51" style="stroke:#FFFFFF;stroke-width:4.75"/>
	<path d=" M64.90 393.62 L381.95 279.38 L1015.97 405.40 L1333.03 1338.38" stroke-linejoin="round" style="fill:none;stroke:#3E647D;stroke-width:19.01"/>
	<text x="1364.51" y="1391.74" style="font-family:'Helvetica';font-size:60.49px;fill:#000000">78</text>
	<text x="1364.51" y="1126.72" style="font-family:'Helvetica';font-size:60.49px;fill:#000000">79</text>
	<text x="1364.51" y="861.74" style="font-family:'Helvetica';font-size:60.49px;fill:#000000">80</text>
	<text x="1364.51" y="596.72" style="font-family:'Helvetica';font-size:60.49px;fill:#000000">81</text>
	<text x="1364.51" y="331.70" style="font-family:'Helvetica';font-size:60.49px;fill:#000000">82</text>
	<text x="1499.40" y="824.97" style="font-family:'Helvetica';font-size:60.49px;fill:#000000" transform="rotate(-90 1499.40,824.97)" text-anchor="middle">% of Commuters Driving Alone</text>
	<line x1="55.44" y1="1380.06" x2="1342.53" y2="1380.06" style="stroke:#000000;stroke-width:3.17"/>
	<line x1="64.95" y1="1358.08" x2="64.95" y2="1380.06" style="stroke:#000000;stroke-width:3.17"/>
	<text x="64.95" y="1433.37" style="font-family:'Helvetica';font-size:60.49px;fill:#000000" text-anchor="middle">1</text>
	<line x1="381.95" y1="1358.08" x2="381.95" y2="1380.06" style="stroke:#000000;stroke-width:3.17"/>
	<text x="381.95" y="1433.37" style="font-family:'Helvetica';font-size:60.49px;fill:#000000" text-anchor="middle">2</text>
	<line x1="699.01" y1="1358.08" x2="699.01" y2="1380.06" style="stroke:#000000;stroke-width:3.17"/>
	<text x="699.01" y="1433.37" style="font-family:'Helvetica';font-size:60.49px;fill:#000000" text-anchor="middle">3</text>
	<line x1="1016.02" y1="1358.08" x2="1016.02" y2="1380.06" style="stroke:#000000;stroke-width:3.17"/>
	<text x="1016.02" y="1433.37" style="font-family:'Helvetica';font-size:60.49px;fill:#000000" text-anchor="middle">4</text>
	<line x1="1333.03" y1="1358.08" x2="1333.03" y2="1380.06" style="stroke:#000000;stroke-width:3.17"/>
	<text x="1333.03" y="1433.37" style="font-family:'Helvetica';font-size:60.49px;fill:#000000" text-anchor="middle">5</text>
	<text x="699.01" y="1499.40" style="font-family:'Helvetica';font-size:60.49px;fill:#000000" text-anchor="middle">Social Distancing: Lowest (1) to Highest (5)</text>
	<rect x="663.07" y="55.49" width="679.46" height="84.99" style="fill:#7B92A8"/>
	<rect x="664.66" y="57.07" width="676.29" height="81.82" style="fill:none;stroke:#7B92A8;stroke-width:3.17"/>
	<text x="1333.03" y="121.12" style="font-family:'Helvetica';font-size:65.99px;fill:#FFFFff" text-anchor="end">Driving Alone to Work</text>
	<text x="90.29" y="155.89" style="font-family:'Helvetica';font-size:21.98px;fill:#000000">Data: Mobile Phone GPS Tracking &amp; RWJF CHR</text>
	<text x="90.29" y="177.87" style="font-family:'Helvetica';font-size:21.98px;fill:#000000">Analysis by @nabarund</text>
	<text x="90.29" y="199.85" style="font-family:'Helvetica';font-size:21.98px;fill:#000000">UNC Chapel Hill</text>
</svg>
